<svg width="261" height="269" viewBox="0 0 261 269" fill="none" xmlns="http://www.w3.org/2000/svg">
<circle cx="155.919" cy="112.919" r="122.5" transform="rotate(-14.8502 155.919 112.919)" stroke="#EBEBEB" stroke-width="10"/>
<mask id="path-2-inside-1_13_8" fill="white">
<path d="M279.16 80.2414C283.451 96.4257 284.513 113.297 282.284 129.891C280.055 146.486 274.58 162.479 266.17 176.957C257.76 191.436 246.581 204.116 233.271 214.274C219.961 224.432 204.78 231.869 188.596 236.16C172.412 240.451 155.541 241.513 138.946 239.284C122.352 237.055 106.359 231.579 91.8802 223.17C77.4018 214.76 64.7216 203.581 54.5635 190.271C44.4055 176.961 36.9685 161.78 32.6773 145.596L130.637 119.622C131.517 122.942 133.043 126.056 135.127 128.787C137.21 131.517 139.812 133.81 142.782 135.536C145.752 137.261 149.033 138.384 152.437 138.841C155.841 139.299 159.302 139.081 162.622 138.2C165.942 137.32 169.056 135.795 171.787 133.711C174.517 131.627 176.81 129.026 178.536 126.056C180.261 123.085 181.384 119.805 181.841 116.4C182.299 112.996 182.081 109.535 181.2 106.215L279.16 80.2414Z"/>
</mask>
<path d="M279.16 80.2414C283.451 96.4257 284.513 113.297 282.284 129.891C280.055 146.486 274.58 162.479 266.17 176.957C257.76 191.436 246.581 204.116 233.271 214.274C219.961 224.432 204.78 231.869 188.596 236.16C172.412 240.451 155.541 241.513 138.946 239.284C122.352 237.055 106.359 231.579 91.8802 223.17C77.4018 214.76 64.7216 203.581 54.5635 190.271C44.4055 176.961 36.9685 161.78 32.6773 145.596L130.637 119.622C131.517 122.942 133.043 126.056 135.127 128.787C137.21 131.517 139.812 133.81 142.782 135.536C145.752 137.261 149.033 138.384 152.437 138.841C155.841 139.299 159.302 139.081 162.622 138.2C165.942 137.32 169.056 135.795 171.787 133.711C174.517 131.627 176.81 129.026 178.536 126.056C180.261 123.085 181.384 119.805 181.841 116.4C182.299 112.996 182.081 109.535 181.2 106.215L279.16 80.2414Z" stroke="#EBEBEB" stroke-width="20" mask="url(#path-2-inside-1_13_8)"/>
<circle cx="155.919" cy="112.919" r="31.0849" transform="rotate(-14.8502 155.919 112.919)" stroke="#EBEBEB" stroke-width="10"/>
<circle cx="155.918" cy="112.919" r="11.4022" transform="rotate(-14.8502 155.918 112.919)" stroke="#EBEBEB" stroke-width="10"/>
</svg>
