<svg id="visual" viewBox="0 0 900 600" width="900" height="600" xmlns="http://www.w3.org/2000/svg" xmlns:xlink="http://www.w3.org/1999/xlink" version="1.1"><rect x="0" y="0" width="900" height="600" fill="#ecf2f8"></rect><defs><linearGradient id="grad1_0" x1="33.3%" y1="0%" x2="100%" y2="100%"><stop offset="20%" stop-color="#dc6161" stop-opacity="1"></stop><stop offset="80%" stop-color="#dc6161" stop-opacity="1"></stop></linearGradient></defs><defs><linearGradient id="grad1_1" x1="33.3%" y1="0%" x2="100%" y2="100%"><stop offset="20%" stop-color="#dc6161" stop-opacity="1"></stop><stop offset="80%" stop-color="#e384aa" stop-opacity="1"></stop></linearGradient></defs><defs><linearGradient id="grad1_2" x1="33.3%" y1="0%" x2="100%" y2="100%"><stop offset="20%" stop-color="#d6aedd" stop-opacity="1"></stop><stop offset="80%" stop-color="#e384aa" stop-opacity="1"></stop></linearGradient></defs><defs><linearGradient id="grad1_3" x1="33.3%" y1="0%" x2="100%" y2="100%"><stop offset="20%" stop-color="#d6aedd" stop-opacity="1"></stop><stop offset="80%" stop-color="#d2d4f3" stop-opacity="1"></stop></linearGradient></defs><defs><linearGradient id="grad1_4" x1="33.3%" y1="0%" x2="100%" y2="100%"><stop offset="20%" stop-color="#ecf2f8" stop-opacity="1"></stop><stop offset="80%" stop-color="#d2d4f3" stop-opacity="1"></stop></linearGradient></defs><defs><linearGradient id="grad2_0" x1="0%" y1="0%" x2="66.7%" y2="100%"><stop offset="20%" stop-color="#dc6161" stop-opacity="1"></stop><stop offset="80%" stop-color="#dc6161" stop-opacity="1"></stop></linearGradient></defs><defs><linearGradient id="grad2_1" x1="0%" y1="0%" x2="66.7%" y2="100%"><stop offset="20%" stop-color="#e384aa" stop-opacity="1"></stop><stop offset="80%" stop-color="#dc6161" stop-opacity="1"></stop></linearGradient></defs><defs><linearGradient id="grad2_2" x1="0%" y1="0%" x2="66.7%" y2="100%"><stop offset="20%" stop-color="#e384aa" stop-opacity="1"></stop><stop offset="80%" stop-color="#d6aedd" stop-opacity="1"></stop></linearGradient></defs><defs><linearGradient id="grad2_3" x1="0%" y1="0%" x2="66.7%" y2="100%"><stop offset="20%" stop-color="#d2d4f3" stop-opacity="1"></stop><stop offset="80%" stop-color="#d6aedd" stop-opacity="1"></stop></linearGradient></defs><defs><linearGradient id="grad2_4" x1="0%" y1="0%" x2="66.7%" y2="100%"><stop offset="20%" stop-color="#d2d4f3" stop-opacity="1"></stop><stop offset="80%" stop-color="#ecf2f8" stop-opacity="1"></stop></linearGradient></defs><g transform="translate(900, 0)"><path d="M0 540.8C-114.6 538.2 -229.1 535.6 -270.4 468.4C-311.7 401.2 -279.8 269.3 -312.6 180.5C-345.5 91.7 -443.2 45.8 -540.8 0L0 0Z" fill="#dbe4f6"></path><path d="M0 432.7C-91.6 430.6 -183.3 428.5 -216.3 374.7C-249.4 320.9 -223.8 215.5 -250.1 144.4C-276.4 73.3 -354.5 36.7 -432.7 0L0 0Z" fill="#d1c2eb"></path><path d="M0 324.5C-68.7 322.9 -137.5 321.4 -162.2 281C-187 240.7 -167.9 161.6 -187.6 108.3C-207.3 55 -265.9 27.5 -324.5 0L0 0Z" fill="#dd99c7"></path><path d="M0 216.3C-45.8 215.3 -91.6 214.2 -108.2 187.3C-124.7 160.5 -111.9 107.7 -125.1 72.2C-138.2 36.7 -177.3 18.3 -216.3 0L0 0Z" fill="#e37188"></path><path d="M0 108.2C-22.9 107.6 -45.8 107.1 -54.1 93.7C-62.3 80.2 -56 53.9 -62.5 36.1C-69.1 18.3 -88.6 9.2 -108.2 0L0 0Z" fill="#dc6161"></path></g><g transform="translate(0, 600)"><path d="M0 -540.8C52.8 -455.2 105.5 -369.5 193.5 -335.2C281.5 -300.8 404.6 -317.7 468.4 -270.4C532.1 -223.1 536.5 -111.6 540.8 0L0 0Z" fill="#dbe4f6"></path><path d="M0 -432.7C42.2 -364.1 84.4 -295.6 154.8 -268.1C225.2 -240.6 323.7 -254.2 374.7 -216.3C425.7 -178.5 429.2 -89.2 432.7 0L0 0Z" fill="#d1c2eb"></path><path d="M0 -324.5C31.7 -273.1 63.3 -221.7 116.1 -201.1C168.9 -180.5 242.8 -190.6 281 -162.2C319.3 -133.9 321.9 -66.9 324.5 0L0 0Z" fill="#dd99c7"></path><path d="M0 -216.3C21.1 -182.1 42.2 -147.8 77.4 -134.1C112.6 -120.3 161.8 -127.1 187.3 -108.2C212.9 -89.2 214.6 -44.6 216.3 0L0 0Z" fill="#e37188"></path><path d="M0 -108.2C10.6 -91 21.1 -73.9 38.7 -67C56.3 -60.2 80.9 -63.5 93.7 -54.1C106.4 -44.6 107.3 -22.3 108.2 0L0 0Z" fill="#dc6161"></path></g></svg>